# xmcd CD database file
#
# Track frame offsets:
#	150
#	12239
#	24441
#	37978
#	49930
#	59727
#	72559
#	85939
#	95699
#	108660
#	130163
#	143524
#	154313
#	169058
#	181642
#	195127
#	207506
#	220967
#	233245
#	241544
#
# Disc length: 3418 seconds
#
# Revision: 0
# Processed by: cddbd v1.5.2PL0 Copyright (c) Steve Scherf et al.
# Submitted via: CDex 1.70beta2
#
DISCID=130d5814
DTITLE=The roots of AC-DC - The roots of AC-DC
DYEAR=2009
DGENRE=Blues
TTITLE0=Chuck Berry - School days
TTITLE1=Larry Williams - Slow down
TTITLE2=B.B. King - You upset me baby
TTITLE3=Howlin' Wolf - How many years
TTITLE4=Little Richards - Lucille
TTITLE5=Jerry Lee Lewis - Whole lot of shakin' going on
TTITLE6=Roosevelt Sykes - 44 blues
TTITLE7=John Lee Hooker - Dimples
TTITLE8=Muddy Waters - Mannish boy
TTITLE9=Louis Armstrong - St James infirmary
TTITLE10=Josh White - The house of the rising sun
TTITLE11=Blind Boy Fuller - Get your yas yas out
TTITLE12=Elmore James - It hurts me too
TTITLE13=Leroy Carr - Alabama woman blues
TTITLE14=John Lee Hooker - Hobo blues
TTITLE15=Big Joe Williams - Baby please don't go
TTITLE16=B.B. King  - Three o'clock blues
TTITLE17=Elmore James - Dust my Broom
TTITLE18=Jerry Lee Lewis - Great balls of fire
TTITLE19=Juck Berry - Reelin' and Rocking
EXTD=YEAR: 2009
EXTT0=
EXTT1=
EXTT2=
EXTT3=
EXTT4=
EXTT5=
EXTT6=
EXTT7=
EXTT8=
EXTT9=
EXTT10=
EXTT11=
EXTT12=
EXTT13=
EXTT14=
EXTT15=
EXTT16=
EXTT17=
EXTT18=
EXTT19=
PLAYORDER=
